<?xml version="1.0" encoding="UTF-8" standalone="no"?>
<svg
   xmlns:dc="http://purl.org/dc/elements/1.1/"
   xmlns:cc="http://creativecommons.org/ns#"
   xmlns:rdf="http://www.w3.org/1999/02/22-rdf-syntax-ns#"
   xmlns:svg="http://www.w3.org/2000/svg"
   xmlns="http://www.w3.org/2000/svg"
   xmlns:sodipodi="http://sodipodi.sourceforge.net/DTD/sodipodi-0.dtd"
   xmlns:inkscape="http://www.inkscape.org/namespaces/inkscape"
   height="24"
   width="24"
   version="1.1"
   id="svg16"
   sodipodi:docname="box-.svg"
   inkscape:version="1.0.1 (3bc2e813f5, 2020-09-07)">
  <metadata
     id="metadata22">
    <rdf:RDF>
      <cc:Work
         rdf:about="">
        <dc:format>image/svg+xml</dc:format>
        <dc:type
           rdf:resource="http://purl.org/dc/dcmitype/StillImage" />
      </cc:Work>
    </rdf:RDF>
  </metadata>
  <defs
     id="defs20" />
  <sodipodi:namedview
     pagecolor="#ffffff"
     bordercolor="#666666"
     borderopacity="1"
     objecttolerance="10"
     gridtolerance="10"
     guidetolerance="10"
     inkscape:pageopacity="0"
     inkscape:pageshadow="2"
     inkscape:window-width="1366"
     inkscape:window-height="715"
     id="namedview18"
     showgrid="false"
     inkscape:zoom="22.833333"
     inkscape:cx="9.6118992"
     inkscape:cy="10.248175"
     inkscape:window-x="-8"
     inkscape:window-y="-8"
     inkscape:window-maximized="1"
     inkscape:current-layer="svg16" />
  <path
     d="m 3.1875,6 -2,10 h 2 V 9 h 18 v 7 h 2 l -2,-10 z"
     fill="#f39c12"
     id="path2" />
  <path
     d="m 3.1875,9 -2,14 h 2 18 2 l -2,-14 z"
     fill="#e67e22"
     id="path4" />
  <path
     d="m 1.1875,16 v 7 h 22 v -7 h -8.188 c -0.416,1.1 -1.511,2 -2.812,2 -1.302,0 -2.3975,-0.9 -2.813,-2 H 1.187 Z"
     fill="#f1c40f"
     id="path8" />
  <rect
     height="1"
     width="22"
     y="23.000025"
     x="1.1875"
     fill="#f39c12"
     id="rect10" />
  <path
     d="m 12.361314,0.61313869 c -3.6242996,0 -6.6600001,2.54999971 -7.3593001,5.99999961 h 2.4843 c 0.66735,-2.0999998 2.5980001,-3.7499998 4.9215001,-3.7499998 1.407001,0 2.685,0.5999999 3.6105,1.5 l -2.156999,2.2499998 h 3.467999 2.391 0.141 V 0.61313869 L 17.657816,2.7131385 C 16.297316,1.3631386 14.431317,0.61313869 12.361314,0.61313869 Z M 4.8613139,9.613138 v 6.000001 l 2.2032,-2.250001 c 1.3602005,1.35 3.2268001,2.250001 5.2968001,2.250001 3.624,0 6.66,-2.700001 7.359,-6.000001 h -2.484 c -0.6675,2.1 -2.597999,3.6 -4.9215,3.6 -1.407,0 -2.6849997,-0.6 -3.6097497,-1.5 l 2.1562497,-2.1 h -3.4687501 -2.39055 z"
     fill="#2980b9"
     id="path6"
     style="fill:#34495e;fill-opacity:1;stroke-width:1.49999" />
</svg>
